HIERARCHY
ROOT joint_Root
{
	OFFSET 0.0 0.0 0.0
	CHANNELS 6 Xposition Yposition Zposition Zrotation Xrotation Yrotation 
	JOINT Hips
	{
		OFFSET -0.726466 93.3139 -2.00062
		CHANNELS 6 Xposition Yposition Zposition Zrotation Xrotation Yrotation 
		JOINT Spine
		{
			OFFSET 15.7357 0.0 0.0
			CHANNELS 6 Xposition Yposition Zposition Zrotation Xrotation Yrotation 
			JOINT Chest
			{
				OFFSET 8.98455 -0.406207 0.0
				CHANNELS 6 Xposition Yposition Zposition Zrotation Xrotation Yrotation 
				JOINT Neck
				{
					OFFSET 16.3773 0.0 0.0
					CHANNELS 6 Xposition Yposition Zposition Zrotation Xrotation Yrotation 
					JOINT Head
					{
						OFFSET 6.45672 0.0 0.0
						CHANNELS 6 Xposition Yposition Zposition Zrotation Xrotation Yrotation 
						End Site
						{
							OFFSET 0.0 0.0 0.0
						}
					}
				}
				JOINT Shoulder_L
				{
					OFFSET 12.9942 -0.242716 4.98039
					CHANNELS 6 Xposition Yposition Zposition Zrotation Xrotation Yrotation 
					JOINT UpperArm_L
					{
						OFFSET 5.34809 0.0 0.0
						CHANNELS 6 Xposition Yposition Zposition Zrotation Xrotation Yrotation 
						JOINT LowerArm_L
						{
							OFFSET 24.3286 1.87007e-05 0.0
							CHANNELS 6 Xposition Yposition Zposition Zrotation Xrotation Yrotation 
							JOINT Hand_L
							{
								OFFSET 22.2916 0.0 0.0
								CHANNELS 6 Xposition Yposition Zposition Zrotation Xrotation Yrotation 
								End Site
								{
									OFFSET 0.0 0.0 0.0
								}
							}
						}
					}
				}
				JOINT Shoulder_R
				{
					OFFSET 12.9945 -0.242716 -4.98039
					CHANNELS 6 Xposition Yposition Zposition Zrotation Xrotation Yrotation 
					JOINT UpperArm_R
					{
						OFFSET -5.34813 0.0 0.0
						CHANNELS 6 Xposition Yposition Zposition Zrotation Xrotation Yrotation 
						JOINT LowerArm_R
						{
							OFFSET -24.3289 0.000322201 0.0
							CHANNELS 6 Xposition Yposition Zposition Zrotation Xrotation Yrotation 
							JOINT Hand_R
							{
								OFFSET -22.2915 -0.000108084 0.0
								CHANNELS 6 Xposition Yposition Zposition Zrotation Xrotation Yrotation 
								End Site
								{
									OFFSET 0.0 0.0 0.0
								}
							}
						}
					}
				}
			}
		}
		JOINT UpperLeg_L
		{
			OFFSET -2.19248 -6.46944 0.0
			CHANNELS 6 Xposition Yposition Zposition Zrotation Xrotation Yrotation 
			JOINT LowerLeg_L
			{
				OFFSET 39.0811 0.0 -1.23785e-05
				CHANNELS 6 Xposition Yposition Zposition Zrotation Xrotation Yrotation 
				JOINT Foot_L
				{
					OFFSET 40.9854 0.0 -1.26872e-05
					CHANNELS 6 Xposition Yposition Zposition Zrotation Xrotation Yrotation 
					JOINT Toes_L
					{
						OFFSET 11.7543 0.0 0.0
						CHANNELS 6 Xposition Yposition Zposition Zrotation Xrotation Yrotation 
						End Site
						{
							OFFSET 0.0 0.0 0.0
						}
					}
				}
			}
		}
		JOINT UpperLeg_R
		{
			OFFSET -2.19251 6.46944 0.0
			CHANNELS 6 Xposition Yposition Zposition Zrotation Xrotation Yrotation 
			JOINT LowerLeg_R
			{
				OFFSET -39.0811 -0.00228153 -0.0401928
				CHANNELS 6 Xposition Yposition Zposition Zrotation Xrotation Yrotation 
				JOINT Foot_R
				{
					OFFSET -40.9854 0.0 0.0
					CHANNELS 6 Xposition Yposition Zposition Zrotation Xrotation Yrotation 
					JOINT Toes_R
					{
						OFFSET -11.7543 0.0 0.0
						CHANNELS 6 Xposition Yposition Zposition Zrotation Xrotation Yrotation 
						End Site
						{
							OFFSET 0.0 0.0 0.0
						}
					}
				}
			}
		}
	}
}
MOTION
Frames:	5
Frame Time:	0.0333333
0.000000 0.000000 0.000000 0.000000 0.000000 -0.000000 107.524000 88.640800 168.952000 -84.051100 44.403800 -179.246000 15.735700 0.000005 -0.000001 109.308000 82.951500 -109.293000 8.984550 -0.406207 -0.000000 5.551760 4.649930 -0.195249 16.377300 -0.000001 -0.000001 3.698300 8.080850 -1.586030 6.456720 -0.000001 -0.000000 2.853880 9.270590 -4.686330 12.994200 -0.242716 4.980390 -89.249000 -1.714970 -66.346800 5.348090 -0.000007 -0.000001 -77.068900 16.933500 0.629262 24.328600 0.000019 0.000005 1.615760 8.694340 -10.571500 22.291600 -0.000001 0.000005 5.574530 5.330970 -0.816968 12.994500 -0.242716 -4.980390 88.639500 4.956310 -74.628900 -5.348130 -0.000001 -0.000004 -56.983700 22.986300 -25.361800 -24.328900 0.000322 -0.000009 1.605460 3.275520 -26.145500 -22.291500 -0.000108 -0.000004 13.652500 5.418590 -3.551070 -2.192480 -6.469440 -0.000000 174.264000 -11.087600 -23.540200 39.081100 -0.000007 -0.000012 -0.012525 0.018257 34.454800 40.985400 -0.000006 -0.000013 9.905320 -12.871000 -58.226000 11.754300 -0.000000 0.000003 -0.003900 -0.050402 -18.627000 -2.192510 6.469440 -0.000001 172.255000 16.341100 -175.983000 -39.081100 -0.002282 -0.040193 0.167596 -0.140676 49.437500 -40.985400 0.000008 0.000006 -1.776770 -3.791370 -45.685900 -11.754300 -0.000006 -0.000006 -0.161064 -0.576129 -41.010600
0.000000 0.000000 0.000000 0.000000 0.000000 -0.000000 109.587000 88.643300 165.860000 -84.597700 42.161900 -178.148000 15.735700 0.000005 -0.000001 105.996000 82.908900 -106.005000 8.984550 -0.406207 -0.000000 5.877920 3.898160 -0.218686 16.377300 -0.000001 -0.000001 3.683520 7.819300 -1.915450 6.456720 -0.000001 -0.000000 3.096950 9.271350 -4.934100 12.994200 -0.242716 4.980390 -89.363400 -1.464750 -66.505600 5.348090 -0.000007 -0.000001 -78.000300 20.624300 -0.936170 24.328600 0.000019 0.000005 1.703230 7.394710 -13.013800 22.291600 -0.000001 0.000005 4.354490 5.353520 -1.483170 12.994500 -0.242716 -4.980390 88.610800 4.939060 -74.269300 -5.348130 -0.000001 -0.000004 -58.466800 26.113100 -22.331200 -24.328900 0.000322 -0.000009 2.201910 4.749400 -24.924800 -22.291500 -0.000108 -0.000004 10.857500 5.411660 -3.319380 -2.192480 -6.469440 -0.000000 173.855000 -10.888000 -21.007200 39.081100 -0.000007 -0.000012 -0.030725 0.041670 36.404000 40.985400 -0.000006 -0.000013 9.672730 -11.612800 -62.114800 11.754300 -0.000000 0.000003 -0.002825 -0.038613 -18.147000 -2.192510 6.469440 -0.000001 172.804000 13.960000 179.280000 -39.081100 -0.002282 -0.040193 0.189298 -0.117813 57.661700 -40.985400 0.000008 0.000006 2.176360 -4.824800 -35.710900 -11.754300 -0.000006 -0.000006 -0.042054 -0.268195 -27.596000
0.000000 0.000000 0.000000 0.000000 0.000000 -0.000000 111.409000 88.661200 163.002000 -85.619600 39.650400 -177.158000 15.735700 0.000005 -0.000001 102.211000 82.866000 -102.410000 8.984550 -0.406207 -0.000000 6.191030 3.012150 -0.560725 16.377300 -0.000001 -0.000001 3.571940 7.565050 -2.065720 6.456720 -0.000001 -0.000000 3.044270 9.287420 -4.865270 12.994200 -0.242716 4.980390 -89.433000 -1.329710 -66.904200 5.348090 -0.000007 -0.000001 -78.131500 25.001800 -3.482050 24.328600 0.000019 0.000005 1.681050 5.785850 -16.238500 22.291600 -0.000001 0.000005 4.453520 5.383120 -2.396880 12.994500 -0.242716 -4.980390 88.486000 5.246270 -73.878300 -5.348130 -0.000001 -0.000004 -59.957400 29.082300 -19.652300 -24.328900 0.000322 -0.000009 3.231970 7.536360 -23.305500 -22.291500 -0.000108 -0.000004 8.865860 5.412050 -3.332810 -2.192480 -6.469440 -0.000000 173.068000 -10.276100 -18.417600 39.081100 -0.000007 -0.000012 -0.022200 0.029330 37.123700 40.985400 -0.000006 -0.000013 9.644500 -10.391200 -65.127100 11.754300 -0.000000 0.000003 -0.002250 -0.031812 -17.870400 -2.192510 6.469440 -0.000001 173.083000 11.689100 174.502000 -39.081100 -0.002282 -0.040193 0.133818 -0.061402 64.828200 -40.985400 0.000008 0.000006 2.781830 -3.949560 -36.098500 -11.754300 -0.000006 -0.000006 -0.033495 -0.233058 -26.129900
0.000000 0.000000 0.000000 0.000000 0.000000 -0.000000 113.186000 88.924500 160.346000 -85.592500 36.766300 -176.715000 15.735700 0.000005 -0.000001 97.670300 82.785600 -97.719200 8.984550 -0.406207 -0.000000 6.537220 1.920450 -0.207333 16.377300 -0.000001 -0.000001 3.743880 7.202650 -2.220910 6.456720 -0.000001 -0.000000 2.995550 9.320090 -4.920550 12.994200 -0.242716 4.980390 -89.517700 -1.152830 -67.295800 5.348090 -0.000007 -0.000001 -77.150100 29.781900 -6.719140 24.328600 0.000019 0.000005 1.472160 4.060440 -19.959500 22.291600 -0.000001 0.000005 4.991810 5.419590 -3.583590 12.994500 -0.242716 -4.980390 88.423800 5.301260 -73.415000 -5.348130 -0.000001 -0.000004 -62.251200 31.327600 -16.876400 -24.328900 0.000322 -0.000009 3.932480 10.175900 -21.270300 -22.291500 -0.000108 -0.000004 7.953690 5.408870 -3.227300 -2.192480 -6.469440 -0.000000 173.325000 -9.044200 -15.139400 39.081100 -0.000007 -0.000012 -0.017827 0.023962 36.651600 40.985400 -0.000006 -0.000013 9.597940 -9.092230 -67.345900 11.754300 -0.000000 0.000003 -0.001903 -0.027505 -17.695200 -2.192510 6.469440 -0.000001 174.159000 9.751460 170.400000 -39.081100 -0.002282 -0.040193 0.066414 -0.024491 68.844000 -40.985400 0.000008 0.000006 2.440920 -2.262830 -40.101500 -11.754300 -0.000006 -0.000006 -0.031359 -0.223625 -25.737800
0.000000 0.000000 0.000000 0.000000 0.000000 -0.000000 114.917000 89.368700 157.843000 -84.963200 33.121600 -176.675000 15.735700 0.000005 -0.000001 92.427900 82.736200 -92.051500 8.984550 -0.406207 -0.000000 6.746820 0.610091 0.716057 16.377300 -0.000001 -0.000001 4.119490 6.425250 -2.441550 6.456720 -0.000001 -0.000000 3.131330 9.164730 -4.864630 12.994200 -0.242716 4.980390 -89.562500 -1.083680 -68.012400 5.348090 -0.000007 -0.000001 -75.162900 34.705100 -10.675300 24.328600 0.000019 0.000005 1.399750 3.155340 -23.937600 22.291600 -0.000001 0.000005 6.041530 5.449340 -4.614210 12.994500 -0.242716 -4.980390 88.469900 4.918030 -72.694100 -5.348130 -0.000001 -0.000004 -65.716100 31.628600 -13.522800 -24.328900 0.000322 -0.000009 3.970580 11.664800 -18.952500 -22.291500 -0.000108 -0.000004 7.655890 5.402140 -3.006870 -2.192480 -6.469440 -0.000000 174.279000 -7.799570 -11.511000 39.081100 -0.000007 -0.000012 -0.022632 0.032130 35.161600 40.985400 -0.000006 -0.000013 9.781540 -6.989300 -69.001100 11.754300 -0.000000 0.000003 -0.001241 -0.018775 -17.340300 -2.192510 6.469440 -0.000001 175.644000 9.181150 166.997000 -39.081100 -0.002282 -0.040193 0.024683 -0.008280 68.989100 -40.985400 0.000008 0.000006 2.409960 -3.674600 -43.300500 -11.754300 -0.000006 -0.000006 -0.030480 -0.219655 -25.573000
